Coordinates
version=1
nRows=17
nColumns=36
inDegrees=yes

Units are S.I. units (second, meters, Newtons, ...)
If the header above contains a line with 'inDegrees', this indicates whether rotational values are in degrees (yes) or radians (no).

endheader
time	pelvis_tilt	pelvis_list	pelvis_rotation	pelvis_tx	pelvis_ty	pelvis_tz	hip_flexion_r	hip_adduction_r	hip_rotation_r	knee_angle_r	knee_angle_r_beta	ankle_angle_r	subtalar_angle_r	mtp_angle_r	hip_flexion_l	hip_adduction_l	hip_rotation_l	knee_angle_l	knee_angle_l_beta	ankle_angle_l	subtalar_angle_l	mtp_angle_l	lumbar_extension	lumbar_bending	lumbar_rotation	arm_flex_r	arm_add_r	arm_rot_r	elbow_flex_r	pro_sup_r	arm_flex_l	arm_add_l	arm_rot_l	elbow_flex_l	pro_sup_l
      6.00000000	    -38.19771454	     -6.36861401	      5.48152915	      0.28329930	      0.61019877	      0.14743398	    105.49326832	    -17.18738813	      0.03172701	    101.61645632	      1.77354174	     41.16463544	     -0.72140640	     -7.49999987	    108.66548662	    -16.20043949	      2.12624249	     98.91353404	      1.72636684	     47.26782580	      2.61802230	     -7.49999987	    -22.75848100	      2.29975579	     11.66721294	     77.18110429	    -22.48905964	     72.82869021	    126.64686911	     64.85750894	     81.92051059	      2.38442903	     74.23779467	    113.00907001	     87.51433449
      6.01666670	    -38.22516473	     -6.43513330	      5.52455443	      0.28296026	      0.60950270	      0.14726627	    105.74749409	    -17.47754089	     -0.02807104	    101.62349565	      1.77366460	     40.97697373	     -0.51887516	     -7.49999987	    108.99631846	    -15.92313958	      2.17218047	     99.12867268	      1.73012172	     47.16728288	      2.50750023	     -7.49999987	    -22.89059504	      2.69611296	     11.76926801	     77.93565643	    -22.83607042	     72.86310175	    126.69964300	     64.14472680	     82.06364996	      2.66079043	     73.79870748	    112.89309859	     84.64739635
      6.03333330	    -37.99119478	     -6.44171124	      5.60678411	      0.28406883	      0.60898295	      0.15282749	    105.57614080	    -17.64858041	     -0.04165053	    101.50067859	      1.77152103	     40.74062189	     -0.40698985	     -7.49999987	    108.83841983	    -15.68144816	      2.17378455	     99.14992320	      1.73049261	     47.14819423	      2.40591221	     -7.49999987	    -22.89484730	      2.78021393	     11.93565492	     78.60156655	    -22.23561348	     73.45412228	    127.30869209	     63.65801005	     82.07933784	      2.45536354	     73.24518482	    114.04726601	     85.06387391
      6.05000000	    -37.72969162	     -6.55580049	      5.69600299	      0.29097272	      0.61661463	      0.15539656	    104.92229920	    -17.73761084	     -0.24790731	    101.08467722	      1.76426044	     40.58735226	     -0.36935615	     -7.49999987	    108.32794352	    -15.46733902	      2.29952530	     98.85466252	      1.72533934	     47.25246078	      2.46112562	     -7.49999987	    -22.70225257	      2.99419360	     11.66168750	     78.48593060	    -20.17629860	     76.32022068	    127.27606301	     63.25785278	     80.78063484	      1.53870359	     73.18622651	    116.24171003	     85.59879730
      6.06666670	    -37.50508423	     -6.56309205	      5.74648494	      0.29070972	      0.62005047	      0.14889454	    104.10480032	    -17.78800084	     -0.41175295	    100.48504368	      1.75379486	     40.43377345	     -0.32716936	     -7.49999987	    107.55738009	    -15.29855507	      2.27231812	     98.34507266	      1.71644532	     47.37040156	      2.58715113	     -7.49999987	    -22.15402202	      3.00667332	     11.36878247	     77.72612496	    -19.60486673	     77.03492918	    128.27125211	     63.26957743	     80.49070497	      2.13647912	     72.87323777	    116.68727428	     85.64004544
      6.08333330	    -37.11431175	     -6.59526476	      5.87513873	      0.28333043	      0.62496750	      0.15149732	    103.13831597	    -17.88780485	     -0.61739003	     99.75462682	      1.74104668	     40.19840891	     -0.32068376	     -7.49999987	    106.66369646	    -15.08369110	      2.19228007	     97.74369604	      1.70594932	     47.39183448	      2.71320306	     -7.49999987	    -22.08534812	      3.21554279	     11.34570289	     78.54864421	    -19.69742866	     77.14036962	    129.12289946	     63.17316101	     80.97300682	      2.03794184	     71.68804565	    116.54864915	     85.73205454
      6.10000000	    -36.70580922	     -6.65208713	      5.99319719	      0.27700793	      0.63374915	      0.14829056	    101.99929248	    -18.00858345	     -1.01511915	     98.69847238	      1.72261331	     39.93032329	     -0.20472535	     -7.49999987	    105.67745346	    -14.87795200	      2.02421473	     96.85491894	      1.69043723	     47.25157387	      2.72164958	     -7.49999987	    -22.20394918	      3.60150705	     11.37483398	     79.75904735	    -21.09227721	     75.80876192	    129.54203419	     62.82880089	     82.28199555	      2.33969748	     71.59614518	    115.87043556	     86.04164043
      6.11666670	    -36.29130012	     -6.56390939	      6.00596772	      0.29781809	      0.64544615	      0.15124167	    100.41366858	    -17.92331828	     -1.33663191	     97.37959117	      1.69959449	     39.86018538	     -0.01419294	     -7.49999987	    104.09078637	    -14.76011489	      1.83991224	     95.65992235	      1.66958061	     47.43144521	      3.03942470	     -7.49999987	    -21.64522340	      3.29146811	     11.34596846	     77.73063711	    -19.77445940	     76.84216006	    130.49179911	     62.80300923	     80.96873290	      1.92026829	     72.38644734	    117.51331177	     84.63777656
      6.13333330	    -35.86282681	     -6.74746973	      6.04348669	      0.30478735	      0.66646019	      0.14757219	     97.90713249	    -17.73475194	     -2.05324570	     95.24559859	      1.66234929	     39.60903383	     -0.28248445	     -7.49999987	    101.87804781	    -14.58641621	      1.79980151	     93.76949528	      1.63658643	     47.54348724	      3.45612790	     -7.49999987	    -21.75562556	      3.68371873	     10.93527331	     75.61395127	    -19.89468778	     78.09581214	    129.07191442	     62.93571380	     79.08677562	      1.02177788	     73.68889799	    116.51238545	     83.00735735
      6.15000000	    -35.18290106	     -6.95097475	      6.10217216	      0.28987243	      0.66972953	      0.14019104	     95.44308400	    -17.68598651	     -2.83495753	     93.18833732	      1.62644331	     39.27816856	     -0.27234159	     -7.49999987	     99.70362113	    -14.40439954	      1.73890163	     92.05631939	      1.60668587	     47.42210977	      3.70587735	     -7.49999987	    -21.92252720	      4.19014916	     11.32268199	     76.51470630	    -21.64612196	     75.00726963	    131.53031779	     66.08796291	     80.33512878	      2.99609382	     71.72681289	    116.54684636	     92.74525218
      6.16666670	    -34.47112030	     -6.89793029	      6.18013940	      0.28390764	      0.67591417	      0.14304607	     93.38469584	    -17.64665392	     -3.35090076	     91.34887181	      1.59433858	     38.89443343	     -0.12816997	     -7.49999987	     97.71345552	    -14.17585321	      1.48376061	     90.44779804	      1.57861188	     47.16934803	      3.68881718	     -7.49999987	    -21.47651664	      4.42317391	     10.56187883	     76.79265961	    -20.34051815	     76.11721763	    132.02798135	     65.77272868	     81.16179029	      2.57111664	     71.27018899	    117.58240503	     91.99215849
      6.18333330	    -34.01152435	     -6.79027650	      6.27290739	      0.27658415	      0.69022424	      0.13978516	     91.68254560	    -17.73943166	     -3.88873263	     89.43330447	      1.56090562	     38.39137785	      0.16482649	     -7.49999987	     96.07322863	    -13.86371852	      1.14303872	     88.71572415	      1.54838148	     46.68174277	      3.62691910	     -7.49999987	    -21.42153751	      4.84268340	     10.15051924	     77.83753560	    -20.63453421	     74.89358459	    131.50803331	     65.20395042	     82.05420412	      2.21361802	     71.67754073	    117.49465187	     88.80814331
      6.20000000	    -33.28836545	     -6.66231995	      6.24467030	      0.28528674	      0.71014684	      0.13601130	     89.24284241	    -17.64776552	     -4.59590218	     87.02501238	      1.51887300	     37.68922684	      0.24289279	     -7.49999987	     93.70308540	    -13.61855142	      0.85163070	     86.57013009	      1.51093380	     46.17920236	      3.54460289	     -7.49999987	    -21.68063725	      4.97597884	     10.15498453	     77.17903892	    -20.43683099	     77.62354506	    132.32540432	     65.31261179	     81.41653689	      2.41773478	     73.51479752	    117.51250645	     88.10246504
      6.21666670	    -32.55091825	     -6.57831435	      6.27824981	      0.27893704	      0.72185149	      0.13866458	     86.83316863	    -17.53951917	     -5.26532517	     84.61865734	      1.47687418	     36.89609326	      0.45217621	     -7.49999987	     91.36854790	    -13.35632700	      0.60829252	     84.36164927	      1.47238854	     45.54260455	      3.47330561	     -7.49999987	    -21.65518439	      5.22261886	      9.90798832	     77.77929517	    -20.32235369	     76.91964629	    132.61389742	     65.30463055	     82.16535568	      2.34049083	     73.21698595	    117.86236402	     88.19681531
      6.23333330	    -31.53477582	     -6.50817288	      6.26394663	      0.28771619	      0.73121429	      0.14189252	     84.07702519	    -17.20957875	     -5.91843599	     82.22767109	      1.43514360	     36.32370656	      0.66116067	     -7.49999987	     88.72379210	    -13.23898392	      0.50513778	     82.22867458	      1.43516111	     45.04819809	      3.51011841	     -7.49999987	    -21.52663776	      5.23560657	      9.31474631	     78.08004240	    -18.35376568	     77.57212601	    132.71269117	     65.71169013	     81.71208403	      1.50081768	     72.40604350	    119.68325632	     88.39331768
      6.25000000	    -30.42143093	     -6.29346167	      6.27669297	      0.28812320	      0.74671628	      0.13444233	     81.22056843	    -16.96471184	     -6.38844282	     79.75839317	      1.39204657	     35.64396465	      0.94664140	     -7.49999987	     85.84768549	    -13.01479148	      0.29207812	     79.94855840	      1.39536558	     44.47043980	      3.59161049	     -7.49999987	    -21.45084690	      5.32196570	      8.72237371	     77.18821757	    -18.64104279	     76.60508853	    132.90975952	     65.83449087	     81.02883160	      1.69341658	     71.90309995	    119.45030661	     88.50332798
      6.26666670	    -29.27869994	     -6.11965939	      6.31236605	      0.29592920	      0.76546070	      0.13761461	     77.99975926	    -16.61260327	     -6.91737364	     76.94262099	      1.34290207	     35.00165517	      1.22528579	     -7.49999987	     82.65957584	    -12.82935420	      0.10084939	     77.35132395	      1.35003528	     43.87602650	      3.78442464	     -7.49999987	    -21.68193269	      5.33957555	      8.25269799	     75.65596130	    -17.76375018	     76.44338735	    132.04329858	     69.82820781	     79.12533251	      0.67428175	     71.93979278	    120.08016077	     93.99788126
